<svg width="30" height="20" viewBox="0 0 30 20" fill="none" xmlns="http://www.w3.org/2000/svg">
<g clip-path="url(#clip0_69_1908)">
<path fill-rule="evenodd" clip-rule="evenodd" d="M20.6698 8.17838H22.2479V10.6855L23.613 8.17838H25.0612L22.1414 13.2471C22.1414 13.2471 21.8703 13.6722 21.5341 13.8971C21.258 14.0821 20.9183 14.0737 20.8145 14.0812C20.2378 14.0762 19.5421 14.0746 19.5421 14.0746L19.8777 12.8664L20.4207 12.8654C20.4207 12.8654 20.6692 12.8401 20.7653 12.7175C20.8567 12.6007 20.9035 12.4839 20.9035 12.3126C20.9035 12.0558 20.6698 8.17826 20.6698 8.17826V8.17838ZM4.27254 8.67909C4.05291 9.18793 3.3719 9.13006 3.3719 9.13006L2.57899 9.12636L2.86844 8.04878C2.86844 8.04878 3.57778 8.05141 3.9257 8.05141C4.29812 8.05141 4.41445 8.35054 4.27266 8.67897L4.27254 8.67909ZM6.07464 7.94476C6.20962 6.87555 5.2687 6.60559 4.25138 6.60559H1.57805L0 12.3569H1.69869L2.22905 10.4042L3.18193 10.412C3.18193 10.412 3.57515 10.3891 3.58292 10.7584C3.59117 11.1524 3.29096 11.8757 3.31033 12.3569H5.05541L5.05158 12.2038C5.05158 12.2038 4.90656 12.1653 4.9227 11.9616C4.92939 11.8768 5.02301 11.6085 5.14555 11.2467C5.21944 11.0872 5.33087 10.7088 5.32059 10.4007C5.30779 10.0161 5.06641 9.83761 4.71837 9.71279C5.80324 9.45837 6.0744 7.94488 6.07452 7.94488L6.07464 7.94476ZM6.4601 8.17838H8.00945L7.37137 10.6333C7.37137 10.6333 7.21224 11.1807 7.72431 11.2229C8.12889 11.2564 8.42994 10.7736 8.52858 10.4466C8.65818 10.0172 9.16176 8.17826 9.16176 8.17826H10.758L9.54339 12.3568H8.1497L8.3209 11.7599C8.3209 11.7599 7.60989 12.6269 6.55347 12.5229C5.61446 12.4307 5.53352 11.7496 5.69624 10.8999C5.7761 10.4827 6.4601 8.17838 6.4601 8.17838ZM14.4175 8.69224C14.1965 9.30892 13.5873 9.23623 13.5873 9.23623L12.7557 9.23647L13.084 8.01458C13.084 8.01458 13.6104 8.01733 13.9581 8.01733C14.3837 8.01733 14.5382 8.35544 14.4175 8.69212V8.69224ZM16.1642 8.12123C16.2993 7.0519 15.4842 6.60547 14.4668 6.60547H11.7936L10.2157 12.3568H11.9143L12.392 10.5837L13.7454 10.5919C13.7454 10.5919 15.8412 10.6806 16.1643 8.12123H16.1642ZM17.5923 11.5056C17.3269 11.5729 17.005 11.6095 16.9412 11.3683C16.7659 10.7075 18.313 10.5141 18.313 10.5141C18.3235 11.1162 17.7959 11.4537 17.5922 11.5056H17.5923ZM19.9327 10.2961C20.1367 9.601 20.3947 8.94283 20.1871 8.57806C19.869 8.01972 19.2942 7.97071 18.4532 7.97071C17.5241 7.97071 16.3771 8.14717 16.0032 9.38269H17.55C17.55 9.38269 17.6909 8.91737 18.2715 8.94666C18.7854 8.9726 18.7573 9.32614 18.5679 9.52162C18.2358 9.86415 17.3185 9.67417 16.3026 10.0266C15.415 10.3346 15.1044 11.5017 15.2973 11.9675C15.4841 12.4192 15.8322 12.4767 16.3017 12.5229C17.0557 12.597 17.6339 12.1765 17.903 11.9298C17.903 12.2038 17.9102 12.3568 17.9102 12.3568H19.5379L19.5339 12.2037C19.5339 12.2037 19.3889 12.1652 19.405 11.9614C19.4168 11.8122 19.698 11.0944 19.9325 10.2961H19.9327Z" fill="#382A8D"/>
<path fill-rule="evenodd" clip-rule="evenodd" d="M27.0876 7.21484L25.2656 13.5528L28.6759 10.3837L27.0876 7.21484Z" fill="#1D8546"/>
<path fill-rule="evenodd" clip-rule="evenodd" d="M25.9157 7.21484L24.0938 13.5528L27.5042 10.3837L25.9157 7.21484Z" fill="#EC6B00"/>
<path fill-rule="evenodd" clip-rule="evenodd" d="M29.3114 6.06241C28.9652 6.06241 28.6833 6.34421 28.6833 6.69057C28.6833 7.03681 28.9651 7.31861 29.3114 7.31861C29.6577 7.31861 29.9395 7.03681 29.9395 6.69057C29.9395 6.34409 29.6577 6.06241 29.3114 6.06241ZM29.3017 6.94822V6.45863H29.3994L29.5152 6.80523C29.5259 6.83751 29.5336 6.86166 29.5387 6.87768C29.5442 6.85986 29.5528 6.83368 29.5648 6.79913L29.6819 6.45863H29.769V6.94822H29.7066V6.53837L29.5643 6.94822H29.5059L29.3643 6.53144V6.94822H29.3017ZM28.9764 6.94822V6.51649H28.8153V6.45875H29.2032V6.51649H29.0413V6.94822H28.9764ZM29.3114 7.38078C28.9306 7.38078 28.6211 7.07112 28.6211 6.69045C28.6211 6.30978 28.9307 6 29.3114 6C29.692 6 30.0018 6.30978 30.0018 6.69045C30.0018 7.071 29.692 7.38078 29.3114 7.38078Z" fill="black"/>
</g>
<defs>
<clipPath id="clip0_69_1908">
<rect width="30" height="20" fill="white"/>
</clipPath>
</defs>
</svg>
