<svg width="30" height="20" viewBox="0 0 30 20" fill="none" xmlns="http://www.w3.org/2000/svg">
<path fill-rule="evenodd" clip-rule="evenodd" d="M3.6028 7.19655L3.04925 5.84998L2.49812 7.19655H3.6028ZM29.788 11.8176H28.3111C28.1641 11.8176 28.0653 11.8237 27.9854 11.8788C27.9009 11.9336 27.8663 12.0165 27.8663 12.1231C27.8663 12.2499 27.9383 12.3377 28.0448 12.3751C28.1278 12.4048 28.22 12.4125 28.3565 12.4143L28.7934 12.4253C29.2349 12.438 29.5309 12.5129 29.7127 12.6962C29.7424 12.7229 29.7642 12.7541 29.788 12.7827V11.8176ZM29.788 14.049C29.5888 14.3388 29.2069 14.4828 28.6888 14.4828H27.1259V13.7562H28.6824C28.8358 13.7562 28.9441 13.7358 29.0097 13.6717C29.0645 13.6215 29.1068 13.5465 29.1068 13.4525C29.107 13.3539 29.0645 13.274 29.0082 13.2286C28.947 13.1754 28.8627 13.1536 28.7232 13.1518C27.9638 13.127 27.0163 13.1754 27.0163 12.1044C27.0163 11.614 27.3279 11.0976 28.1749 11.0976H29.788V10.4243H28.2893C27.8368 10.4243 27.5093 10.5322 27.276 10.7014V10.4243H25.062C24.7096 10.4243 24.2947 10.5137 24.0957 10.7014L24.0973 10.4243H20.1416V10.7014C19.8269 10.4761 19.2975 10.4243 19.0504 10.4243H16.4444V10.7014C16.1939 10.4602 15.6425 10.4243 15.3043 10.4243H12.3846L11.7168 11.1493L11.092 10.4243H6.73V15.1486H11.0099L11.6979 14.4143L12.347 15.1486L14.9818 15.1501V14.0384H15.2431C15.5908 14.0432 16.0057 14.0307 16.3689 13.8742V15.1488H18.5441V13.9165H18.6491C18.7836 13.9165 18.7962 13.9242 18.7962 14.0558V15.1488H25.4045C25.8224 15.1488 26.2611 15.0407 26.5039 14.8468V15.1488H28.6006C29.0375 15.1488 29.4618 15.0878 29.7876 14.9313L29.788 14.049ZM26.5589 12.696C26.7187 12.8606 26.8017 13.0671 26.8017 13.4133C26.8017 14.1432 26.3461 14.4828 25.5317 14.4828H23.9549V13.7562H25.5255C25.6805 13.7562 25.7868 13.7358 25.8557 13.6717C25.9105 13.6215 25.9514 13.5465 25.9514 13.4525C25.9514 13.3539 25.9092 13.274 25.8511 13.2286C25.7899 13.1754 25.7053 13.1536 25.5645 13.1518C24.8082 13.127 23.8607 13.1754 23.8607 12.1044C23.8607 11.614 24.169 11.0976 25.0164 11.0976H26.6386V11.8178H25.1558C25.0072 11.8178 24.9114 11.824 24.83 11.879C24.7424 11.9338 24.7096 12.0168 24.7096 12.1233C24.7096 12.2501 24.7847 12.3379 24.8866 12.3753C24.9711 12.405 25.062 12.4127 25.1998 12.4145L25.6369 12.4255C26.0769 12.4383 26.3758 12.5127 26.5589 12.696ZM19.2601 12.4893C19.1536 12.5521 19.0189 12.5582 18.8624 12.5582H17.8788V11.7986H18.8756C19.0191 11.7986 19.1646 11.8017 19.2601 11.8581C19.3651 11.9144 19.4276 12.0179 19.4276 12.1636C19.4276 12.3077 19.3651 12.4248 19.2601 12.4893ZM19.7488 12.9091C19.9288 12.9746 20.076 13.0935 20.1449 13.1939C20.2592 13.36 20.2779 13.5135 20.2794 13.8126V14.4828H19.4683V14.0584C19.4683 13.8548 19.4873 13.5542 19.3367 13.3975C19.2194 13.2738 19.0391 13.2456 18.7449 13.2456H17.8788V14.4826H17.0677V11.0972H18.9337C19.3449 11.0972 19.6429 11.1144 19.9079 11.2583C20.1623 11.4104 20.3219 11.625 20.3219 12.0102C20.3219 12.5488 19.9623 12.8241 19.7488 12.9091ZM20.7711 11.0972H23.4722V11.7986H21.5774V12.4125H23.4253V13.1032H21.5774V13.7767L23.4722 13.7796V14.4828H20.7711V11.0972ZM15.3153 12.6584H14.2678V11.7986H15.3232C15.6159 11.7986 15.818 11.9162 15.818 12.2135C15.818 12.5065 15.6254 12.6584 15.3153 12.6584ZM13.462 14.1757L12.2217 12.7959L13.462 11.4619V14.1757ZM10.2556 13.7765H8.26696V13.103H10.0427V12.4123H8.26696V11.7984H10.2941L11.1789 12.7834L10.2556 13.7765ZM16.6854 12.2135C16.6854 13.1514 15.9855 13.3475 15.2767 13.3475H14.2676V14.4828H12.6976L11.701 13.3631L10.6656 14.4828H7.4625V11.0974H10.7158L11.7102 12.2061L12.739 11.0974H15.3227C15.9648 11.0974 16.6854 11.2757 16.6854 12.2135ZM15.7984 6.66215C15.6879 6.72488 15.5567 6.73126 15.3985 6.73126H14.4148V5.97939H15.411C15.5536 5.97939 15.7007 5.98424 15.7971 6.03772C15.9012 6.08923 15.9654 6.19399 15.9654 6.33662C15.9654 6.48541 15.9025 6.60272 15.7984 6.66215ZM22.8084 7.19633L22.2478 5.84976L21.6933 7.19633H22.8084ZM9.74208 8.65582H8.91362L8.90878 6.00933L7.73674 8.65582H7.02758L5.84915 6.00317V8.65582H4.20412L3.89466 7.9011H2.20956L1.89724 8.65582H1.01794L2.464 5.27177H3.66729L5.04226 8.47732V5.27177H6.36485L7.42178 7.56896L8.39506 5.27177H9.74164L9.74208 8.65582ZM13.0462 8.65582H10.3443V5.27177H13.0462V5.97939H11.1547V6.58709H13.0002V7.28239L11.1547 7.27909V7.95568H13.0462V8.65582ZM16.8571 6.18629C16.8571 6.7218 16.4968 7.00353 16.2877 7.08672C16.4646 7.15561 16.615 7.27139 16.6854 7.37329C16.7996 7.53749 16.8219 7.69266 16.8219 7.99002V8.6556H16.0059L16.0026 8.22949C16.0026 8.02942 16.0231 7.7347 15.8726 7.57359C15.7544 7.45297 15.5767 7.42788 15.2847 7.42788H14.4146V8.6556H13.6075V5.27155H15.4687C15.8796 5.27155 16.1858 5.28564 16.4472 5.43619C16.7041 5.58651 16.8571 5.80728 16.8571 6.18629ZM18.1521 8.65582H17.3268V5.27177H18.1521V8.65582ZM27.7254 8.65582H26.5791L25.0461 6.11894L25.0477 8.65582H23.4004L23.0857 7.9011H21.4024L21.1002 8.65582H20.1526C19.758 8.65582 19.2601 8.56822 18.9806 8.28319C18.6932 7.99332 18.5477 7.6066 18.5477 6.98988C18.5477 6.48717 18.637 6.0298 18.9837 5.66795C19.246 5.39701 19.6546 5.27177 20.2121 5.27177H20.9934V5.99678H20.2295C19.9343 5.99678 19.765 6.04212 19.6037 6.19884C19.4683 6.34146 19.3728 6.61064 19.3728 6.96611C19.3728 7.32949 19.4433 7.58767 19.5967 7.76023C19.719 7.89317 19.946 7.93389 20.159 7.93389H20.5231L21.6623 5.27177H22.8744L24.243 8.4727V5.27177H25.4771L26.899 7.62861V5.27177H27.7257L27.7254 8.65582ZM1.00803 9.32295H2.39071L2.70237 8.56822H3.40009L3.70999 9.32295H6.43V8.74673L6.67365 9.32449H8.08362L8.32573 8.74034V9.32273H15.0844L15.0811 8.08862H15.212C15.3043 8.09016 15.3309 8.10139 15.3309 8.25172V9.32295H18.8245V9.03484C19.1065 9.18693 19.5467 9.32295 20.1212 9.32295H21.5932L21.9079 8.56822H22.6063L22.9149 9.32295H25.7476V8.60718L26.1768 9.32295H28.4458V4.60156H26.1986V5.16062L25.8854 4.60156H23.5787V5.16062L23.2906 4.60156H20.1762C19.6546 4.60156 19.1941 4.67354 18.8245 4.87713V4.60156H16.6777V4.87713C16.4395 4.66737 16.1186 4.60156 15.7632 4.60156H7.91062L7.38128 5.82136L6.84357 4.60156H4.36986V5.16062L4.09561 4.60156H1.98726L1.00781 6.84395L1.00803 9.32295Z" fill="#006ECE"/>
</svg>
