<svg width="32" height="32" viewBox="0 0 32 32" fill="none" xmlns="http://www.w3.org/2000/svg">
<path d="M21.2263 9.24219H8.68234C7.97542 9.24219 7.40234 9.81526 7.40234 10.5222V18.7308C7.40234 19.4378 7.97542 20.0108 8.68234 20.0108H21.2263C21.9333 20.0108 22.5063 19.4378 22.5063 18.7308V10.5222C22.5063 9.81526 21.9333 9.24219 21.2263 9.24219Z" fill="#BFC2C5"/>
<path d="M12.4785 11.6211H10.1592C9.96124 11.6211 9.80078 11.7816 9.80078 11.9795V12.7808C9.80078 12.9787 9.96124 13.1392 10.1592 13.1392H12.4785C12.6765 13.1392 12.8369 12.9787 12.8369 12.7808V11.9795C12.8369 11.7816 12.6765 11.6211 12.4785 11.6211Z" fill="#F4F4F4"/>
<path d="M11.3188 18.0731H9.80075C9.59083 18.0731 9.42188 17.9029 9.42188 17.6943C9.42188 17.4856 9.59211 17.3154 9.80075 17.3154H11.3188C11.5288 17.3154 11.6977 17.4856 11.6977 17.6943C11.6977 17.9029 11.5275 18.0731 11.3188 18.0731ZM14.355 18.0731H12.8369C12.627 18.0731 12.458 17.9029 12.458 17.6943C12.458 17.4856 12.6283 17.3154 12.8369 17.3154H14.355C14.5649 17.3154 14.7339 17.4856 14.7339 17.6943C14.7339 17.9029 14.5636 18.0731 14.355 18.0731ZM17.3912 16.5551H9.80204C9.59212 16.5551 9.42316 16.3848 9.42316 16.1762C9.42316 15.9675 9.5934 15.7973 9.80204 15.7973H17.3912C17.6011 15.7973 17.77 15.9675 17.77 16.1762C17.77 16.3848 17.5998 16.5551 17.3912 16.5551ZM18.3358 13.1247C18.0875 13.1247 17.939 12.8405 18.0875 12.6357C18.1604 12.5346 18.1617 12.3861 18.0875 12.2837C17.9876 12.1467 18.0184 11.9535 18.1553 11.8536C18.2923 11.7538 18.4856 11.7845 18.5854 11.9215C18.8158 12.2389 18.8158 12.6805 18.5854 12.9967C18.5252 13.0799 18.4318 13.1234 18.3358 13.1234V13.1247ZM19.3355 13.8389C19.0872 13.8389 18.9387 13.5547 19.0872 13.3512C19.466 12.829 19.4724 12.1019 19.0872 11.5707C18.9873 11.4338 19.018 11.2405 19.1563 11.1407C19.2945 11.0408 19.4865 11.0715 19.5864 11.2098C20.1188 11.9445 20.1291 12.9621 19.5864 13.7122C19.5262 13.7954 19.4328 13.8389 19.3368 13.8389H19.3355Z" fill="#F4F4F4"/>
<path d="M17.2213 12.7667C17.3909 12.7667 17.5285 12.6292 17.5285 12.4595C17.5285 12.2899 17.3909 12.1523 17.2213 12.1523C17.0516 12.1523 16.9141 12.2899 16.9141 12.4595C16.9141 12.6292 17.0516 12.7667 17.2213 12.7667Z" fill="#F4F4F4"/>
<path d="M23.2332 17.0234H16.5222C15.8153 17.0234 15.2422 17.5965 15.2422 18.3034V21.4215C15.2422 22.1284 15.8153 22.7015 16.5222 22.7015H23.2332C23.9402 22.7015 24.5132 22.1284 24.5132 21.4215V18.3034C24.5132 17.5965 23.9402 17.0234 23.2332 17.0234Z" fill="#9A9FA5"/>
<path d="M18.386 20.3023C18.3105 20.3023 18.2427 20.3343 18.1723 20.406C18.0264 20.5557 17.9137 20.6005 17.6923 20.6005C17.3569 20.6005 17.1342 20.4751 17.1342 19.8632C17.1342 19.2066 17.4324 19.1221 17.6923 19.1221C17.9201 19.1221 18.0379 19.2002 18.1531 19.3282C18.2286 19.4101 18.308 19.4268 18.3617 19.4268C18.5153 19.4268 18.6408 19.3026 18.6408 19.1516C18.6408 19.094 18.6241 19.0415 18.587 18.9852C18.4833 18.8328 18.2286 18.5781 17.691 18.5781C16.946 18.5781 16.5352 19.0338 16.5352 19.8632C16.5352 20.6927 16.9243 21.1445 17.691 21.1445C18.0712 21.1445 18.4244 20.9896 18.6113 20.74C18.6459 20.694 18.6638 20.6389 18.6638 20.5813C18.6638 20.4277 18.5384 20.3023 18.3848 20.3023H18.386ZM20.6094 18.5986C20.4724 18.5986 20.3752 18.6869 20.3406 18.7765L19.8414 20.1L19.3422 18.7765C19.3089 18.6882 19.2129 18.5986 19.0734 18.5986C18.9121 18.5986 18.7816 18.7292 18.7816 18.8904C18.7816 18.9352 18.788 18.9672 18.802 19.0005L19.5713 20.9372C19.6187 21.0549 19.7172 21.1228 19.844 21.1228C19.9707 21.1228 20.0692 21.0549 20.1166 20.9372L20.8846 19.0018C20.9 18.966 20.9064 18.934 20.9064 18.8892C20.9064 18.7279 20.7758 18.5973 20.6145 18.5973L20.6094 18.5986ZM22.9249 18.5986C22.788 18.5986 22.6907 18.6869 22.6561 18.7765L22.1569 20.1L21.6577 18.7765C21.6244 18.6882 21.5284 18.5986 21.3889 18.5986C21.2276 18.5986 21.0971 18.7292 21.0971 18.8904C21.0971 18.9352 21.1035 18.9672 21.1176 19.0005L21.8868 20.9372C21.9342 21.0549 22.0328 21.1228 22.1595 21.1228C22.2862 21.1228 22.3848 21.0549 22.4321 20.9372L23.2001 19.0018C23.2155 18.966 23.2219 18.934 23.2219 18.8892C23.2219 18.7279 23.0913 18.5973 22.93 18.5973L22.9249 18.5986Z" fill="white"/>
</svg>
