<svg width="30" height="20" viewBox="0 0 30 20" fill="none" xmlns="http://www.w3.org/2000/svg">
<g clip-path="url(#clip0_72_1913)">
<path fill-rule="evenodd" clip-rule="evenodd" d="M1.18616 15.5573C1.18616 16.0294 1.52394 16.0847 1.82407 16.0847C3.149 16.0847 3.58398 15.0852 3.58398 14.1715C3.58398 13.0247 2.84819 12.1973 1.66476 12.1973C1.41289 12.1973 1.29704 12.2153 1.18616 12.2218V15.5575V15.5573ZM15.6957 11.5989C18.8665 11.6145 21.7604 9.01392 21.7604 5.84986C21.7604 2.39046 18.8663 -0.000855238 15.6956 3.30372e-07H12.9668C9.75844 -0.00102635 7.11747 2.39097 7.11747 5.84986C7.11747 9.01444 9.75861 11.6145 12.9668 11.5989H15.6957ZM14.1843 8.93059V2.6485C15.4471 3.13275 16.3434 4.35553 16.3458 5.78946C16.3436 7.22339 15.4471 8.44548 14.1843 8.93059ZM9.61505 5.78946C9.61796 4.35655 10.5131 3.13463 11.775 2.64867V8.92957C10.5131 8.44412 9.61796 7.22288 9.61505 5.78963V5.78946ZM12.98 0.479803C10.048 0.48083 7.67205 2.85708 7.67154 5.78963C7.67222 8.72183 10.0481 11.0976 12.98 11.0984C15.9127 11.0974 18.289 8.72183 18.2893 5.78963C18.289 2.85708 15.9127 0.48083 12.98 0.479803ZM28.5921 17.8754H28.6336C28.679 17.8754 28.7 17.841 28.7 17.7859C28.7 17.7298 28.6674 17.7103 28.6311 17.7103H28.5919V17.8754H28.5921ZM28.4737 18.0607V18.0434C28.5168 18.0371 28.5248 18.0386 28.5248 18.0118V17.7517C28.5248 17.7152 28.5209 17.7026 28.475 17.7046V17.6868H28.655C28.7168 17.6868 28.7736 17.7163 28.7736 17.7799C28.7736 17.8323 28.7391 17.8708 28.6906 17.886L28.7483 17.9664C28.7752 18.0025 28.8056 18.0371 28.8258 18.0492V18.0605H28.757C28.7243 18.0605 28.6954 17.9914 28.6309 17.8987H28.5919V18.0152C28.5919 18.0383 28.6001 18.0369 28.6434 18.0431V18.0604H28.4735L28.4737 18.0607ZM28.6485 18.1601C28.806 18.1601 28.9264 18.0265 28.9264 17.8754C28.9264 17.724 28.8075 17.5888 28.6485 17.5888C28.4908 17.5888 28.37 17.7241 28.37 17.8754C28.37 18.0263 28.4906 18.1601 28.6485 18.1601ZM28.6485 17.5231C28.8498 17.5231 29 17.6776 29 17.8754C29 18.0725 28.8498 18.2257 28.6485 18.2257C28.4478 18.2257 28.2969 18.0723 28.2969 17.8754C28.2969 17.6776 28.4476 17.5231 28.6485 17.5231ZM28.5657 19.9611C28.2716 19.9611 27.9778 19.9476 27.6852 19.9476C27.3914 19.9476 27.0977 19.9611 26.8034 19.9611H26.7896V19.8321H26.8501C26.9711 19.8292 27.0854 19.8209 27.0868 19.623V17.9081C27.0854 17.7455 26.9716 17.7344 26.8501 17.7323H26.7896V17.6035H26.8034C26.981 17.6035 27.1547 17.6163 27.3311 17.6163C27.5005 17.6163 27.6672 17.6035 27.8387 17.6035H27.8523V17.7325H27.7546C27.6256 17.7359 27.5448 17.7303 27.5423 17.8983V19.6201C27.5433 19.7445 27.6246 19.7778 27.729 19.7927C27.7878 19.7968 27.8496 19.7992 27.9139 19.7992C27.9959 19.7992 28.0806 19.7953 28.1668 19.786C28.3027 19.7701 28.4198 19.6916 28.4774 19.6118C28.5286 19.5407 28.5582 19.4491 28.578 19.3764L28.5813 19.3654H28.7069L28.704 19.3829C28.6662 19.5737 28.6205 19.7602 28.5801 19.9501L28.5772 19.9616H28.5661L28.5657 19.9611ZM25.3892 17.9933L25.3895 17.9931L25.3892 17.9933ZM25.0993 18.9212H25.6828L25.3926 18.0277L25.0993 18.9212ZM25.3965 17.9916L25.3928 17.9926L25.3965 17.9916ZM26.6865 19.9613C26.5361 19.9553 26.3862 19.9477 26.2269 19.9477C26.0644 19.9477 25.8972 19.9551 25.7269 19.9613L25.7122 19.9618V19.8322H25.763C25.8407 19.8322 25.9555 19.8141 25.9559 19.7501C25.9566 19.7121 25.9266 19.6211 25.8893 19.5141L25.7625 19.1368H25.0261L24.923 19.4739C24.8895 19.5881 24.8496 19.6758 24.8505 19.7299C24.8505 19.8119 24.9756 19.8322 25.0859 19.8322H25.1368V19.9618L25.1221 19.9613C24.9886 19.9553 24.852 19.9477 24.7191 19.9477C24.5995 19.9477 24.4795 19.9551 24.3594 19.9613L24.3449 19.9618V19.8322H24.3784C24.503 19.8316 24.6072 19.7602 24.6556 19.6254L25.1895 18.0937C25.2324 17.97 25.2923 17.8037 25.3219 17.6711C25.4268 17.6348 25.5606 17.5682 25.6255 17.5279C25.6342 17.5246 25.6433 17.5203 25.657 17.5203C25.6659 17.5195 25.683 17.5219 25.6934 17.5402C25.7033 17.5662 25.7132 17.5966 25.7242 17.6235L26.338 19.3685C26.3779 19.4854 26.4179 19.6088 26.461 19.708C26.5002 19.7967 26.5609 19.8314 26.6676 19.8324H26.7021V19.9619L26.6871 19.9614L26.6865 19.9613ZM24.0456 20.0112L23.9075 20.0064L22.2143 18.1194V19.4566C22.2183 19.7467 22.2626 19.8286 22.5131 19.8317H22.5851V19.9614H22.5706C22.4262 19.9614 22.2829 19.9479 22.1402 19.9479C21.9907 19.9479 21.8374 19.9614 21.6857 19.9614H21.6721V19.8317H21.7331C21.953 19.831 22.0163 19.6895 22.0187 19.4235V18.0181C22.0184 17.8403 21.8728 17.7327 21.7294 17.7327H21.6719V17.6038H21.6856C21.8134 17.6038 21.9438 17.6167 22.0696 17.6167C22.1685 17.6167 22.2646 17.6038 22.3777 17.6088L23.8438 19.2594V18.0321C23.843 17.7667 23.6654 17.7347 23.5677 17.7327H23.4799V17.6038H23.4951C23.652 17.6038 23.806 17.6167 23.9612 17.6167C24.0978 17.6167 24.234 17.6038 24.3726 17.6038H24.3869V17.7328H24.3223C24.185 17.7366 24.043 17.7489 24.0401 18.142V19.6606C24.0401 19.777 24.0427 19.8932 24.0591 19.9953L24.062 20.0116H24.0457L24.0456 20.0112ZM20.3754 19.8502V19.8357C21.01 19.835 21.1199 19.2794 21.1216 18.7929C21.1216 18.3092 20.861 17.7303 20.3187 17.7293C19.7462 17.7299 19.5769 18.2376 19.5757 18.682C19.5761 19.2763 19.8471 19.8345 20.3755 19.8357V19.8502M19.0795 18.7991C19.0811 18.097 19.6238 17.5545 20.3252 17.5534V17.5679V17.5534C21.0417 17.554 21.6164 17.9994 21.6176 18.7186C21.617 19.4941 21.0598 20.0099 20.3423 20.0111C19.6286 20.0099 19.0811 19.5244 19.0795 18.7989V18.7991ZM18.9945 19.9613C18.8333 19.9613 18.6336 19.9476 18.4673 19.9476C18.304 19.9476 18.1072 19.9613 17.9767 19.9613H17.9623V19.8322H18.0232C18.1437 19.8302 18.2544 19.8198 18.2553 19.6567V17.9088C18.2546 17.7459 18.1439 17.7347 18.0232 17.7325H17.9623V17.6037H17.9767C18.1072 17.6037 18.3076 17.6165 18.4702 17.6165C18.6365 17.6165 18.8367 17.6037 18.9945 17.6037H19.0085V17.7327H18.9479C18.8259 17.7347 18.7162 17.746 18.715 17.9089V19.6569C18.7162 19.8201 18.8259 19.8305 18.9479 19.8326H19.0087V19.9616H18.9946L18.9945 19.9613ZM17.2566 19.9613C17.1256 19.9613 16.892 19.9477 16.7127 19.9477C16.5133 19.9477 16.2796 19.9613 16.1487 19.9613H16.134V19.8322H16.212C16.3958 19.828 16.4697 19.8256 16.4743 19.5668L16.474 17.7992H15.942V17.7847V17.7992C15.6944 17.8033 15.7 17.8451 15.6456 18.0918L15.643 18.1031H15.5142L15.5162 18.0864C15.5304 17.9926 15.5465 17.899 15.5566 17.8027C15.5703 17.7096 15.5766 17.6172 15.5766 17.5214V17.5065H15.6821L15.685 17.5171C15.7081 17.6014 15.7693 17.6018 15.8545 17.6033C15.8605 17.6033 15.8657 17.6037 15.8715 17.6037H17.5936C17.6855 17.6019 17.753 17.6006 17.7587 17.5137L17.7597 17.4977L17.7755 17.5006L17.8699 17.5157L17.8673 17.5303C17.8537 17.6196 17.841 17.7099 17.8309 17.7994C17.8242 17.8884 17.8242 17.9787 17.8242 18.0684V18.0785L17.8145 18.0823L17.6962 18.1256L17.6957 18.1059C17.6868 17.9808 17.6738 17.7992 17.463 17.7992H16.9302V19.56C16.9337 19.8115 17.0335 19.829 17.1921 19.8324H17.2702V19.9614H17.2561L17.2566 19.9613ZM14.4966 17.9935L14.4973 17.9933L14.4966 17.9935ZM14.2065 18.9212H14.7907L14.5002 18.0272L14.2065 18.9212ZM14.5041 17.9916L14.5003 17.9926L14.5041 17.9916ZM15.7943 19.9613C15.6444 19.9548 15.4942 19.9476 15.335 19.9476C15.1715 19.9476 15.0053 19.9548 14.8347 19.9613L14.8195 19.9618V19.8316H14.8708C14.9481 19.8316 15.0628 19.8141 15.063 19.7501C15.0636 19.7121 15.0339 19.6206 14.9969 19.5141L14.8701 19.1368H14.134L14.0303 19.4739C13.9966 19.5877 13.9565 19.6758 13.9567 19.7303C13.9577 19.8117 14.0827 19.8314 14.1934 19.8314H14.2444V19.9616L14.2293 19.9611C14.0957 19.9546 13.9596 19.9474 13.8265 19.9474C13.7071 19.9474 13.5864 19.9546 13.467 19.9611L13.4516 19.9616V19.8314H13.4856C13.6102 19.831 13.7137 19.7605 13.7618 19.625L14.296 18.0934C14.3397 17.9697 14.3999 17.8033 14.4286 17.6704C14.5332 17.6348 14.6673 17.5677 14.7317 17.5273C14.7409 17.5241 14.75 17.5195 14.7637 17.5195C14.7719 17.519 14.7899 17.5214 14.8006 17.5391C14.8102 17.5662 14.8205 17.5961 14.8308 17.6232L15.4452 19.3682C15.4846 19.4851 15.5241 19.6084 15.5677 19.7072C15.6064 19.7961 15.6679 19.831 15.775 19.8314H15.8092V19.9616L15.794 19.9611L15.7943 19.9613ZM12.9596 19.2893L12.9608 19.2883L12.9596 19.2893ZM13.1532 20.0112L13.0156 20.0066L11.3221 18.1192V19.4561C11.3264 19.7463 11.3702 19.8288 11.6219 19.8322H11.6924V19.9613H11.678C11.5336 19.9613 11.3904 19.9476 11.2475 19.9476C11.0983 19.9476 10.9441 19.9613 10.7942 19.9613H10.779V19.8322H10.8402C11.0604 19.8312 11.1239 19.6894 11.1258 19.4226V18.0179C11.1255 17.8401 10.98 17.7325 10.8375 17.7325H10.7788V17.6035H10.794C10.9212 17.6035 11.0515 17.6167 11.1777 17.6167C11.2757 17.6167 11.3722 17.6035 11.4843 17.6079L12.9513 19.2595V18.0321C12.9504 17.7669 12.7726 17.7342 12.6756 17.7327H12.5875V17.6037H12.602C12.7596 17.6037 12.9133 17.6168 13.0693 17.6168C13.2052 17.6168 13.3421 17.6037 13.4795 17.6037H13.4944V17.7328H13.43C13.2923 17.7363 13.1506 17.7488 13.1472 18.142V19.6606C13.1472 19.777 13.1501 19.8926 13.167 19.9953L13.1687 20.0116H13.1528L13.1532 20.0112ZM9.30259 18.7311C9.63301 18.7282 9.79951 18.6136 9.80259 18.2257C9.80071 17.9342 9.61984 17.7536 9.32912 17.7524C9.23894 17.7524 9.1965 17.7606 9.1539 17.7643V18.7311H9.30259ZM10.6943 19.9614C10.5824 19.9614 10.4763 19.9479 10.3666 19.9479C10.2649 19.9479 10.1583 19.9614 10.042 19.9558C9.78599 19.6201 9.56662 19.2616 9.35102 18.8807H9.1539V19.5797C9.15749 19.8307 9.25845 19.8288 9.41279 19.8324H9.48757V19.9614H9.47251C9.28189 19.9614 9.08802 19.9479 8.89877 19.9479C8.73946 19.9479 8.58289 19.9614 8.4152 19.9614H8.40083V19.8324H8.4756C8.59572 19.8314 8.69685 19.7794 8.69754 19.6669V17.9716C8.69497 17.7351 8.57913 17.7363 8.47543 17.7327H8.40065V17.6037H8.41503C8.52317 17.6037 8.72902 17.6168 8.93248 17.6168C9.13165 17.6168 9.29181 17.6037 9.46943 17.6037C9.89003 17.6045 10.2771 17.7207 10.2781 18.2051C10.2781 18.5063 10.0793 18.6943 9.82175 18.7994L10.3823 19.6385C10.4754 19.777 10.5338 19.8117 10.6961 19.8324L10.7081 19.8341V19.9614H10.6941H10.6943ZM8.1486 19.9614C7.93454 19.9614 7.55073 19.9477 7.25111 19.9477C6.95047 19.9477 6.554 19.9614 6.36355 19.9614H6.34934V19.8324H6.41043C6.53124 19.8304 6.64075 19.8199 6.64229 19.6569V17.9089C6.64075 17.746 6.53124 17.7351 6.41026 17.7327H6.34917V17.6038H6.36337C6.567 17.6038 6.91419 17.6167 7.19379 17.6167C7.47442 17.6167 7.82092 17.6038 8.04782 17.6038H8.0627L8.06236 17.6187C8.0598 17.669 8.05877 17.7284 8.05877 17.791C8.05877 17.9064 8.06219 18.0325 8.06886 18.1276L8.06904 18.1398L8.05808 18.143L7.94104 18.1735L7.94002 18.1564C7.92034 17.9399 7.89125 17.7825 7.54765 17.7796H7.09814L7.09779 18.6242H7.48092C7.67308 18.6225 7.70747 18.5241 7.73006 18.3442L7.73126 18.3309H7.85942L7.85891 18.3461C7.85258 18.476 7.84847 18.606 7.84847 18.7363C7.84847 18.8624 7.85258 18.9892 7.85891 19.1161L7.85942 19.1279L7.84744 19.1307L7.73143 19.1538L7.73023 19.1382C7.70747 18.9341 7.70576 18.8227 7.48434 18.8201H7.09848V19.5834C7.09882 19.7859 7.2737 19.785 7.49118 19.7859C7.89279 19.7836 8.05398 19.764 8.15442 19.3894L8.15784 19.3761L8.1717 19.3786L8.27882 19.406L8.27574 19.4202C8.23211 19.5964 8.19241 19.7732 8.16263 19.9498L8.16007 19.9616H8.14826L8.1486 19.9614ZM5.66027 19.9614C5.52902 19.9614 5.29563 19.9479 5.11613 19.9479C4.9161 19.9479 4.68287 19.9614 4.55179 19.9614H4.53793V19.8324H4.61545C4.79957 19.8281 4.87332 19.8257 4.87742 19.567V17.7994H4.34492V17.7849V17.7994C4.098 17.8037 4.10348 17.8453 4.04889 18.092L4.04632 18.1033H3.91782L3.9197 18.086C3.93339 17.9929 3.95016 17.8993 3.96008 17.8025C3.97377 17.7099 3.9801 17.6175 3.9801 17.5217V17.5068H4.08602L4.08859 17.5174C4.11118 17.6018 4.17295 17.6021 4.25799 17.6037H5.99634C6.08925 17.6023 6.15701 17.6007 6.16266 17.5137L6.16403 17.4979L6.17909 17.5008L6.2732 17.5159L6.27097 17.5304C6.2578 17.6197 6.24462 17.7101 6.23487 17.7996C6.22837 17.8886 6.22837 17.9782 6.22837 18.0686V18.0787L6.21878 18.0824L6.10072 18.1257L6.09969 18.106C6.09079 17.981 6.07744 17.7994 5.8668 17.7994H5.33413V19.5602C5.33738 19.8117 5.43697 19.8292 5.5961 19.8326H5.6743V19.9616H5.6601L5.66027 19.9614ZM3.51793 20.0114L3.38018 20.0066L1.68718 18.1196V19.4568C1.69112 19.7469 1.73526 19.8292 1.98646 19.8326H2.05798V19.9616H2.0431C1.89885 19.9616 1.75511 19.9481 1.61275 19.9481C1.46336 19.9481 1.31005 19.9616 1.15878 19.9616H1.14424V19.8326H1.20584C1.42623 19.8312 1.4892 19.6897 1.49194 19.4236V18.0184C1.49126 17.841 1.34564 17.7327 1.20259 17.7327H1.14424V17.6038H1.15878C1.28643 17.6038 1.41682 17.6167 1.54225 17.6167C1.64166 17.6167 1.738 17.6038 1.85059 17.6088L3.31704 19.2594V18.0321C3.31533 17.7667 3.13822 17.7347 3.04103 17.7327H2.95274V17.6038H2.96745C3.12488 17.6038 3.27871 17.6167 3.43459 17.6167C3.57046 17.6167 3.70718 17.6038 3.84509 17.6038H3.85964V17.7328H3.7953C3.65755 17.7366 3.51621 17.7488 3.51228 18.142V19.6606C3.51228 19.777 3.5157 19.8932 3.53196 19.9948L3.53504 20.0116H3.51775L3.51793 20.0114ZM1.0325 19.9614C0.870969 19.9614 0.671279 19.9479 0.505299 19.9479C0.341885 19.9479 0.145618 19.9614 0.0143735 19.9614H0V19.8324H0.0609165C0.182236 19.8295 0.292262 19.8199 0.293631 19.6569V17.9089C0.292262 17.7455 0.182407 17.7349 0.0609165 17.7327H0V17.6037H0.0143735C0.145618 17.6037 0.34565 17.6168 0.508721 17.6168C0.674872 17.6168 0.874562 17.6037 1.03233 17.6037H1.04722V17.7328H0.985786C0.864466 17.7349 0.753927 17.7457 0.753071 17.9091V19.657C0.753927 19.8203 0.864466 19.8298 0.985615 19.8328H1.04704V19.9618H1.03216L1.0325 19.9614ZM26.4701 15.5881C26.4701 15.8213 26.6908 16.214 27.1017 16.214C27.7579 16.214 28.0336 15.57 28.0336 15.0239C28.0336 14.3617 27.5312 13.8101 27.0529 13.8101C26.8253 13.8101 26.6356 13.9576 26.4701 14.0986V15.5881ZM26.4701 13.9203C26.7153 13.712 27.0466 13.4788 27.384 13.4788C28.0953 13.4788 28.5243 14.0987 28.5243 14.7668C28.5243 15.57 27.9357 16.3735 27.0585 16.3735C26.6051 16.3735 26.366 16.2264 26.2062 16.1589L26.0225 16.2996L25.8941 16.2325C25.9484 15.8706 25.9797 15.5149 25.9797 15.1408V12.504C25.9797 12.1053 25.8873 12.0931 25.6544 12.0257V11.9275C25.9001 11.8479 26.1573 11.7375 26.286 11.6638C26.3534 11.627 26.4023 11.5962 26.4211 11.5962C26.4579 11.5962 26.4699 11.633 26.4699 11.6821V13.9203H26.4701ZM25.25 15.9439C25.25 16.0544 25.3171 16.0604 25.4213 16.0604C25.4951 16.0604 25.5868 16.0546 25.6669 16.0546V16.1836C25.4028 16.2081 24.8999 16.3369 24.7834 16.3735L24.7526 16.355V15.8585C24.3852 16.1589 24.1027 16.3735 23.6669 16.3735C23.3358 16.3735 22.9925 16.1589 22.9925 15.6441V14.0738C22.9925 13.9143 22.9681 13.761 22.6252 13.7305V13.6138C22.8461 13.6078 23.3356 13.5712 23.4157 13.5712C23.4836 13.5712 23.4836 13.6138 23.4836 13.749V15.3308C23.4836 15.5149 23.4836 16.0422 24.0168 16.0422C24.2251 16.0422 24.5011 15.8828 24.7584 15.6687V14.0185C24.7584 13.8961 24.4643 13.8291 24.2441 13.7676V13.6571C24.7952 13.6203 25.1392 13.5714 25.2004 13.5714C25.2499 13.5714 25.2499 13.614 25.2499 13.6819V15.9442L25.25 15.9439ZM21.3127 16.122H21.4287C21.6009 16.122 21.7237 16.122 21.7237 15.919V12.5038C21.7237 12.1051 21.6315 12.0929 21.3986 12.0255V11.9273C21.6438 11.8477 21.9012 11.7374 22.03 11.6633C22.0973 11.6268 22.1466 11.5957 22.1647 11.5957C22.2018 11.5957 22.2143 11.6328 22.2143 11.6819V15.9189C22.2143 16.1218 22.3492 16.1218 22.5211 16.1218H22.6248V16.2811C22.4169 16.2811 22.202 16.269 21.9814 16.269C21.7609 16.269 21.54 16.275 21.3129 16.2811V16.1218L21.3127 16.122ZM21.0916 13.1106H20.9387C20.822 12.3936 20.3127 12.1051 19.6264 12.1051C18.9207 12.1051 17.8964 12.5772 17.8964 14.0489C17.8964 15.2881 18.7802 16.1771 19.7241 16.1771C20.3309 16.1771 20.8343 15.7604 20.957 15.1162L21.098 15.1528L20.957 16.0482C20.6993 16.2081 20.0063 16.3735 19.6014 16.3735C18.1668 16.3735 17.2594 15.4476 17.2594 14.0678C17.2594 12.8104 18.3812 11.9087 19.5831 11.9087C20.0797 11.9087 20.5583 12.0686 21.0302 12.2343L21.0916 13.1107V13.1106ZM13.7945 15.4288C13.8744 15.8333 14.1194 16.1769 14.5674 16.1769C14.9288 16.1769 15.0635 15.956 15.0635 15.7418C15.0635 15.018 13.7273 15.2508 13.7273 14.264C13.7273 13.9204 14.0034 13.4786 14.6778 13.4786C14.8737 13.4786 15.1372 13.5341 15.3764 13.6568L15.4196 14.2817H15.2787C15.2175 13.8958 15.0027 13.6752 14.6102 13.6752C14.3646 13.6752 14.1321 13.8162 14.1321 14.0797C14.1321 14.7976 15.5547 14.5763 15.5547 15.5392C15.5547 15.9437 15.2298 16.3734 14.4998 16.3734C14.2545 16.3734 13.9661 16.2875 13.7519 16.1651L13.6841 15.4598L13.7947 15.4288H13.7945ZM11.4338 16.122H11.5993C11.7704 16.122 11.8933 16.122 11.8933 15.919V14.1964C11.8933 14.0063 11.6664 13.9694 11.5745 13.9204V13.8285C12.0221 13.6384 12.2675 13.4788 12.3236 13.4788C12.3595 13.4788 12.378 13.4973 12.378 13.5589V14.1107H12.391C12.5438 13.8717 12.8017 13.4788 13.1756 13.4788C13.3291 13.4788 13.5252 13.5828 13.5252 13.8037C13.5252 13.9695 13.4088 14.1172 13.2372 14.1172C13.0464 14.1172 13.0464 13.9695 12.8322 13.9695C12.7278 13.9695 12.3845 14.1107 12.3845 14.4788V15.9192C12.3845 16.1222 12.5069 16.1222 12.6788 16.1222H13.0219V16.2815C12.6847 16.2751 12.428 16.2693 12.164 16.2693C11.9126 16.2693 11.6549 16.2753 11.4342 16.2815V16.1222L11.4338 16.122ZM10.5938 14.3925C10.7471 14.3925 10.7649 14.3126 10.7649 14.2394C10.7649 13.9266 10.575 13.6752 10.2314 13.6752C9.85769 13.6752 9.60016 13.9507 9.52658 14.3927H10.5938V14.3925ZM9.50844 14.589C9.49561 14.6444 9.49544 14.736 9.50844 14.9449C9.54455 15.5272 9.91929 16.0055 10.4092 16.0055C10.747 16.0055 11.011 15.8213 11.2374 15.5948L11.3229 15.6805C11.0408 16.0546 10.6914 16.3735 10.189 16.3735C9.21361 16.3735 9.01752 15.429 9.01752 15.0368C9.01752 13.8344 9.82672 13.4788 10.2557 13.4788C10.753 13.4788 11.2868 13.7916 11.2921 14.4416C11.2921 14.4788 11.2921 14.5152 11.2868 14.5524L11.231 14.5891H9.50844V14.589ZM6.36834 14.2943C6.36834 14.0678 6.30058 14.0065 6.01293 13.89V13.7735C6.27628 13.6876 6.5273 13.6076 6.82213 13.4786C6.84044 13.4786 6.85858 13.4913 6.85858 13.5397V13.9384C7.20833 13.6874 7.50915 13.4785 7.92034 13.4785C8.44121 13.4785 8.62498 13.8587 8.62498 14.3371V15.9187C8.62498 16.1216 8.75999 16.1216 8.93179 16.1216H9.04233V16.2809C8.8269 16.2809 8.61266 16.2688 8.39244 16.2688C8.17119 16.2688 7.95062 16.2748 7.72972 16.2809V16.1216H7.84026C8.01223 16.1216 8.13406 16.1216 8.13406 15.9187V14.3309C8.13406 13.9812 7.92034 13.8097 7.57041 13.8097C7.37431 13.8097 7.06152 13.969 6.85858 14.1042V15.9187C6.85858 16.1216 6.9941 16.1216 7.1659 16.1216H7.27609V16.2809C7.06169 16.2809 6.84677 16.2688 6.62586 16.2688C6.40547 16.2688 6.18439 16.2748 5.96382 16.2809V16.1216H6.07436C6.24616 16.1216 6.36868 16.1216 6.36868 15.9187V14.2938L6.36834 14.2943ZM5.12982 12.5348C4.97 12.5348 4.82917 12.3874 4.82917 12.228C4.82917 12.0743 4.9765 11.933 5.12965 11.933C5.28861 11.933 5.43012 12.0623 5.43012 12.228C5.43012 12.3938 5.29494 12.5348 5.12965 12.5348H5.12982ZM4.4736 16.1222H4.59012C4.76158 16.1222 4.88427 16.1222 4.88427 15.9192V14.2577C4.88427 13.9882 4.79238 13.9509 4.56548 13.8287V13.7305C4.85364 13.6443 5.19741 13.5282 5.22153 13.5098C5.26483 13.4853 5.30127 13.4788 5.33207 13.4788C5.36236 13.4788 5.37502 13.5158 5.37502 13.5652V15.9192C5.37502 16.1222 5.51003 16.1222 5.68183 16.1222H5.78569V16.2815C5.57711 16.2815 5.36219 16.2693 5.14214 16.2693C4.92123 16.2693 4.70032 16.2753 4.4736 16.2815V16.1222ZM0.585209 12.6816C0.585209 12.1299 0.297396 12.1664 0.0217314 12.1605V12.0011C0.260606 12.0129 0.505812 12.0129 0.7452 12.0129C1.00273 12.0129 1.35214 12.0011 1.80628 12.0011C3.39421 12.0011 4.25885 13.0613 4.25885 14.1473C4.25885 14.7546 3.90327 16.2815 1.73235 16.2815C1.4199 16.2815 1.13123 16.2693 0.843248 16.2693C0.567584 16.2693 0.297396 16.2753 0.0217314 16.2815V16.1222C0.389284 16.085 0.567584 16.073 0.585209 15.6559V12.6816Z" fill="#0B56A6"/>
</g>
<defs>
<clipPath id="clip0_72_1913">
<rect width="30" height="20" fill="white"/>
</clipPath>
</defs>
</svg>
