<svg width="30" height="20" viewBox="0 0 30 20" fill="none" xmlns="http://www.w3.org/2000/svg">
<path fill-rule="evenodd" clip-rule="evenodd" d="M28.8935 9.52121C28.8935 8.64144 28.2878 8.13376 27.2305 8.13376H25.8713V12.8331H26.7866V10.9455H26.9063L28.1752 12.8331H29.3026L27.8231 10.8535C28.5133 10.7131 28.8935 10.2409 28.8935 9.52133V9.52121ZM29.3419 8.0287C29.1415 8.0287 28.9822 8.18881 28.9822 8.38883C28.9822 8.58861 29.1434 8.74897 29.3419 8.74897C29.5375 8.74897 29.6976 8.58688 29.6976 8.38883C29.6976 8.19152 29.5375 8.0287 29.3419 8.0287ZM29.3408 8.68443C29.183 8.68443 29.0537 8.55313 29.0537 8.38933C29.0537 8.22465 29.1811 8.09348 29.3407 8.09348C29.4979 8.09348 29.6257 8.22798 29.6257 8.38933C29.6257 8.5519 29.4979 8.68443 29.3408 8.68443ZM29.4786 8.31038C29.4786 8.22798 29.4217 8.18302 29.3223 8.18302H29.1896V8.59587H29.2884V8.43576L29.4038 8.59587H29.5243L29.3886 8.42554C29.4466 8.41002 29.4786 8.36765 29.4786 8.31038ZM29.305 8.36654H29.2884V8.25865H29.306C29.3547 8.25865 29.3801 8.27626 29.3801 8.31185C29.3801 8.34819 29.3544 8.36642 29.305 8.36642V8.36654ZM19.9869 11.2902L18.7336 8.13364H17.7322L19.7266 12.9538H20.22L22.2502 8.13364H21.2563L19.9871 11.2902H19.9869ZM9.08907 10.4867C9.08907 11.868 10.1737 12.9392 11.5695 12.9392C11.9641 12.9392 12.302 12.8614 12.7187 12.6652V11.5861C12.3522 11.9529 12.0279 12.1007 11.6122 12.1007C10.689 12.1007 10.0339 11.4315 10.0339 10.4797C10.0339 9.5775 10.7099 8.86573 11.5695 8.86573C12.0068 8.86573 12.3377 9.02165 12.7187 9.3946V8.31592C12.3164 8.11171 11.9855 8.02734 11.5912 8.02734C10.2025 8.02734 9.08907 9.11994 9.08907 10.4866V10.4867ZM7.44815 9.93701C6.89809 9.73355 6.7365 9.59942 6.7365 9.34533C6.7365 9.04924 7.02434 8.82447 7.41933 8.82447C7.69386 8.82447 7.91975 8.93716 8.15844 9.20492L8.63804 8.57691C8.24392 8.23204 7.77244 8.05579 7.25712 8.05579C6.42563 8.05579 5.79146 8.63331 5.79146 9.40236C5.79146 10.0498 6.08681 10.3813 6.94761 10.6912C7.30651 10.8178 7.48916 10.9021 7.58141 10.9589C7.76443 11.0785 7.85619 11.2476 7.85619 11.4452C7.85619 11.8259 7.55345 12.1079 7.14442 12.1079C6.70731 12.1079 6.35494 11.8894 6.14395 11.4813L5.55178 12.0514C5.97411 12.6712 6.48143 12.9461 7.17891 12.9461C8.13134 12.9461 8.79963 12.3127 8.79963 11.4028C8.79963 10.6564 8.49074 10.3182 7.4479 9.93689H7.44802L7.44815 9.93701ZM4.2902 12.833H5.20667V8.13364H4.2902V12.833ZM1.34545 8.13364H0V12.833H1.33831C2.05008 12.833 2.56392 12.6652 3.01508 12.2904C3.55121 11.8469 3.86836 11.1783 3.86836 10.4867C3.86836 9.09986 2.83193 8.13364 1.34545 8.13364ZM2.41637 11.664C2.12829 11.924 1.75424 12.0376 1.16194 12.0376H0.915854V8.9299H1.16194C1.75424 8.9299 2.11375 9.03594 2.41637 9.30986C2.7334 9.59215 2.92406 10.0295 2.92406 10.4797C2.92406 10.931 2.7334 11.3816 2.41637 11.6639V11.664ZM22.6645 12.833H25.2641V12.0377H23.5804V10.7691H25.202V9.97298H23.5804V8.93002H25.2641V8.13376H22.6645V12.8331V12.833ZM27.0546 10.2974H26.7865V8.87398H27.069C27.6398 8.87398 27.95 9.11304 27.95 9.5706C27.95 10.0429 27.6398 10.2974 27.0546 10.2974Z" fill="#211D1C"/>
<path fill-rule="evenodd" clip-rule="evenodd" d="M15.5227 8C16.904 8 18.0234 9.11932 18.0234 10.4991V10.5007C18.0234 11.8807 16.904 13 15.5227 13C14.1428 13 13.0234 11.8807 13.0234 10.5007V10.4991C13.0234 9.11932 14.1428 8 15.5227 8Z" fill="url(#paint0_linear_72_1914)"/>
<defs>
<linearGradient id="paint0_linear_72_1914" x1="17.124" y1="11.9958" x2="13.9228" y2="9.00421" gradientUnits="userSpaceOnUse">
<stop stop-color="#F7991E"/>
<stop offset="1" stop-color="#DE5214"/>
</linearGradient>
</defs>
</svg>
