<svg width="30" height="20" viewBox="0 0 30 20" fill="none" xmlns="http://www.w3.org/2000/svg">
<path fill-rule="evenodd" clip-rule="evenodd" d="M17.8788 13.8043H11.1172V1.65234H17.8788V13.8043Z" fill="#6C6BBD"/>
<path fill-rule="evenodd" clip-rule="evenodd" d="M11.5517 7.72838C11.5517 5.26329 12.7059 3.06753 14.5032 1.65241C13.1889 0.617649 11.53 0 9.72741 0C5.45955 0 2 3.46003 2 7.72838C2 11.9967 5.45955 15.4568 9.72741 15.4568C11.5302 15.4568 13.1889 14.8391 14.5032 13.8044C12.7059 12.3892 11.5517 10.1935 11.5517 7.72838Z" fill="#EB001B"/>
<path fill-rule="evenodd" clip-rule="evenodd" d="M26.9998 7.72838C26.9998 11.9967 23.5402 15.4568 19.2724 15.4568C17.4696 15.4568 15.8109 14.8391 14.4961 13.8044C16.2938 12.3892 17.4481 10.1935 17.4481 7.72838C17.4481 5.26329 16.2938 3.06753 14.4961 1.65241C15.8109 0.617487 17.4696 0 19.2724 0C23.5402 0 26.9998 3.46003 26.9998 7.72838ZM26.7639 12.5161V12.2164H26.6858L26.5953 12.4223L26.5053 12.2164H26.4266V12.5161H26.4821V12.29L26.5666 12.4852H26.6241L26.7086 12.2897V12.5163H26.7636L26.7639 12.5161ZM26.2682 12.5161V12.2675H26.3684V12.2169H26.1129V12.2675H26.2131V12.5161H26.2682Z" fill="#0099DF"/>
<path fill-rule="evenodd" clip-rule="evenodd" d="M23.4193 19.4035C23.4414 19.4035 23.462 19.3996 23.4808 19.3912C23.4999 19.3828 23.5167 19.3715 23.5308 19.3574C23.5452 19.3433 23.5563 19.3265 23.5648 19.3067C23.5725 19.2876 23.5771 19.2669 23.5771 19.2447C23.5771 19.2227 23.5725 19.202 23.5648 19.1829C23.5563 19.1636 23.545 19.1466 23.5308 19.1322C23.5167 19.118 23.4999 19.1067 23.4808 19.0987C23.4621 19.0903 23.4414 19.0864 23.4193 19.0864C23.3971 19.0864 23.376 19.0903 23.3569 19.0987C23.3372 19.1065 23.32 19.118 23.3058 19.1322C23.2916 19.1465 23.2802 19.1636 23.2725 19.1829C23.264 19.202 23.2602 19.2227 23.2602 19.2447C23.2602 19.2669 23.264 19.2876 23.2725 19.3067C23.2802 19.3263 23.2916 19.3431 23.3058 19.3574C23.32 19.3716 23.3372 19.3829 23.3569 19.3912C23.3762 19.3996 23.3972 19.4035 23.4193 19.4035ZM20.1611 17.2353C20.2511 17.2353 20.3802 17.2524 20.4789 17.2913L20.3414 17.7119C20.247 17.6731 20.1528 17.6603 20.0623 17.6603C19.7703 17.6603 19.6245 17.8489 19.6245 18.188V19.3386H19.1779V17.2867H19.6201V17.5358C19.7362 17.3555 19.9037 17.2353 20.1611 17.2353ZM14.3259 18.3127C14.3216 17.6731 13.9265 17.2353 13.3512 17.2353C12.7502 17.2353 12.3297 17.6731 12.3297 18.3127C12.3297 18.9647 12.7676 19.3897 13.3817 19.3897C13.6906 19.3897 13.9737 19.3125 14.2228 19.1023L14.0037 18.7716C13.8323 18.9092 13.6131 18.9864 13.4072 18.9864C13.1198 18.9864 12.8579 18.8532 12.7936 18.4843L14.3174 18.4842C14.3217 18.4281 14.3261 18.3726 14.3261 18.3127M21.7931 17.6593C21.7013 17.6593 21.6162 17.6755 21.5372 17.7076C21.4585 17.7399 21.3902 17.7853 21.3327 17.8432C21.2753 17.9011 21.23 17.9709 21.1971 18.052C21.1641 18.1331 21.1479 18.2226 21.1479 18.3197C21.1479 18.4175 21.1641 18.5065 21.1971 18.5874C21.2301 18.6685 21.2753 18.7383 21.3327 18.7962C21.3902 18.8542 21.4585 18.8993 21.5372 18.9319C21.6163 18.9642 21.7013 18.9799 21.7931 18.9799C21.885 18.9799 21.9705 18.9642 22.0491 18.9319C22.1283 18.8995 22.1971 18.8542 22.2545 18.7962C22.313 18.7383 22.3583 18.6685 22.3916 18.5874C22.4246 18.5063 22.4408 18.4175 22.4408 18.3197C22.4408 18.2224 22.4246 18.1329 22.3916 18.052C22.3583 17.9709 22.313 17.9011 22.2545 17.8432C22.1971 17.7853 22.1283 17.7401 22.0491 17.7076C21.9705 17.6755 21.885 17.6593 21.7931 17.6593ZM21.7931 17.2353C21.9523 17.2353 22.0996 17.2628 22.2353 17.3183C22.3709 17.3733 22.4884 17.4494 22.5871 17.5462C22.6864 17.643 22.7636 17.7576 22.8196 17.8892C22.8756 18.0214 22.9036 18.1648 22.9036 18.3195C22.9036 18.4743 22.8756 18.6178 22.8196 18.7499C22.7636 18.8815 22.6864 18.9966 22.5871 19.0934C22.4884 19.1902 22.3709 19.2658 22.2353 19.3213C22.0996 19.3763 21.9523 19.4038 21.7931 19.4038C21.634 19.4038 21.4865 19.3763 21.3509 19.3213C21.2152 19.2658 21.0989 19.1902 21.0006 19.0934C20.9024 18.9966 20.8252 18.8817 20.7692 18.7499C20.7132 18.6177 20.6852 18.4743 20.6852 18.3195C20.6852 18.1648 20.7132 18.0212 20.7692 17.8892C20.8252 17.7576 20.9024 17.643 21.0006 17.5462C21.0989 17.4494 21.2152 17.3732 21.3509 17.3183C21.4865 17.2628 21.634 17.2353 21.7931 17.2353ZM10.1895 18.3127C10.1895 17.9521 10.4258 17.6558 10.812 17.6558C11.181 17.6558 11.4301 17.9393 11.4301 18.3127C11.4301 18.6862 11.181 18.9692 10.812 18.9692C10.4258 18.9692 10.1895 18.6734 10.1895 18.3127ZM23.3846 19.1848V19.2355H23.4312C23.4416 19.2355 23.4503 19.2331 23.4563 19.2292C23.4628 19.2253 23.4662 19.2183 23.4662 19.2101C23.4662 19.2018 23.4628 19.1954 23.4563 19.1915C23.4503 19.1869 23.4416 19.1852 23.4312 19.1852H23.3846V19.1848ZM18.5114 17.6946H17.7818V18.6217C17.7818 18.8276 17.8544 18.9652 18.078 18.9652C18.194 18.9652 18.3398 18.9263 18.4724 18.8491L18.6011 19.231C18.4596 19.3297 18.2366 19.3901 18.0435 19.3901C17.5153 19.3901 17.331 19.1065 17.331 18.63V17.6944H16.9144V17.2866H17.331V16.6641H17.7816V17.2866H18.5112V17.6944L18.5114 17.6946ZM12.7975 18.1324C12.8453 17.8362 13.0251 17.6342 13.343 17.6342C13.6304 17.6342 13.8151 17.8145 13.8624 18.1324H12.7977H12.7975ZM16.2876 17.8107C16.1633 17.733 15.9104 17.6342 15.6483 17.6342C15.4036 17.6342 15.2577 17.7247 15.2577 17.8751C15.2577 18.0122 15.412 18.051 15.6051 18.0764L15.8153 18.1064C16.2619 18.1713 16.5322 18.36 16.5322 18.7205C16.5322 19.111 16.1887 19.3901 15.5967 19.3901C15.2616 19.3901 14.9525 19.3041 14.7079 19.1238L14.9182 18.776C15.0685 18.8919 15.2921 18.9906 15.6012 18.9906C15.9058 18.9906 16.069 18.9006 16.069 18.7415C16.069 18.6261 15.9529 18.5612 15.7084 18.5274L15.4981 18.4974C15.0388 18.4325 14.7895 18.2266 14.7895 17.8921C14.7895 17.4842 15.1245 17.2351 15.6439 17.2351C15.9702 17.2351 16.2664 17.3083 16.4807 17.4499L16.2876 17.8105V17.8107ZM11.8508 18.3127V17.2867H11.4047V17.5358C11.2626 17.3511 11.0485 17.2353 10.7566 17.2353C10.1812 17.2353 9.73063 17.6857 9.73063 18.3127C9.73063 18.9391 10.1812 19.3902 10.7566 19.3902C11.0485 19.3902 11.2626 19.2742 11.4047 19.0895V19.3386H11.8508V18.3127ZM9.33569 19.3386V18.0509C9.33569 17.5659 9.02671 17.2396 8.52883 17.2353C8.26695 17.2307 7.99632 17.3123 7.8076 17.6004C7.66613 17.3728 7.44261 17.2353 7.12909 17.2353C6.91042 17.2353 6.6958 17.2997 6.52811 17.5399V17.2869H6.08203V19.3388H6.53248V18.2014C6.53248 17.8451 6.72995 17.6559 7.03456 17.6559C7.33093 17.6559 7.48113 17.849 7.48113 18.1969V19.3388H7.93174V18.2014C7.93174 17.8451 8.13811 17.6559 8.43382 17.6559C8.73893 17.6559 8.88492 17.849 8.88492 18.1969V19.3388H9.33537L9.33569 19.3386ZM23.4317 19.1494C23.4558 19.1494 23.4746 19.1547 23.4877 19.1656C23.501 19.1764 23.5073 19.1911 23.5073 19.2098C23.5073 19.2255 23.5023 19.2382 23.4916 19.2486C23.4812 19.2585 23.466 19.2648 23.4469 19.2672L23.5089 19.3384H23.4609L23.4034 19.2677H23.3846V19.3384H23.3443V19.1492H23.4317V19.1494ZM23.4194 19.0408C23.4484 19.0408 23.4749 19.0461 23.5 19.057C23.5256 19.0673 23.5473 19.0821 23.5664 19.1007C23.585 19.119 23.5997 19.1405 23.6106 19.1654C23.6214 19.19 23.6268 19.2166 23.6268 19.2446C23.6268 19.2726 23.6214 19.2991 23.6106 19.3237C23.5997 19.3481 23.585 19.3698 23.5664 19.388C23.5471 19.4066 23.5256 19.4215 23.5 19.4322C23.4749 19.443 23.4484 19.4483 23.4194 19.4483C23.39 19.4483 23.3629 19.443 23.3374 19.4322C23.3119 19.4213 23.2896 19.4066 23.2712 19.388C23.2524 19.3698 23.2377 19.3481 23.2268 19.3237C23.216 19.2991 23.2106 19.2726 23.2106 19.2446C23.2106 19.2166 23.216 19.19 23.2268 19.1654C23.2377 19.1403 23.2524 19.1188 23.2712 19.1007C23.2898 19.0821 23.3119 19.0673 23.3374 19.057C23.3629 19.0461 23.39 19.0408 23.4194 19.0408Z" fill="#231F20"/>
</svg>
