<svg width="30" height="20" viewBox="0 0 30 20" fill="none" xmlns="http://www.w3.org/2000/svg">
<path fill-rule="evenodd" clip-rule="evenodd" d="M6.34779 17.6914C6.27508 17.6185 6.18889 17.5618 6.08891 17.5214C5.98909 17.4812 5.87968 17.4608 5.76084 17.4608C5.69789 17.4608 5.63275 17.4662 5.56491 17.4771C5.49708 17.4877 5.43093 17.5071 5.36579 17.5344C5.30081 17.5618 5.23887 17.5997 5.18029 17.6482C5.12171 17.6965 5.07054 17.7576 5.02728 17.8311C4.95743 17.7157 4.86266 17.6251 4.74332 17.5593C4.62381 17.4938 4.48713 17.4608 4.33345 17.4608C4.28177 17.4608 4.22841 17.4655 4.17304 17.4748C4.11782 17.4842 4.06295 17.5004 4.00858 17.5234C3.95404 17.5467 3.90203 17.578 3.85238 17.6177C3.80272 17.6574 3.75778 17.7076 3.71721 17.7682V17.5148H3.28125V19.5893H3.72125V18.4395C3.72125 18.3514 3.73522 18.2731 3.76316 18.2045C3.79111 18.1358 3.82864 18.0786 3.87544 18.0324C3.92223 17.986 3.97694 17.9511 4.03989 17.9274C4.10284 17.9037 4.16984 17.8916 4.24104 17.8916C4.38916 17.8916 4.50413 17.9384 4.58577 18.0324C4.66741 18.1262 4.70831 18.2605 4.70831 18.4351V19.5893H5.14848V18.4395C5.14848 18.3514 5.16245 18.2731 5.19039 18.2045C5.21833 18.1358 5.2557 18.0786 5.30249 18.0324C5.34929 17.986 5.40416 17.9511 5.46695 17.9274C5.5299 17.9037 5.5969 17.8916 5.66826 17.8916C5.81622 17.8916 5.93119 17.9384 6.01299 18.0324C6.0948 18.1262 6.13553 18.2605 6.13553 18.4351V19.5893H6.5757V18.2856C6.5757 18.1644 6.55567 18.0533 6.51595 17.9522C6.47622 17.8512 6.41984 17.7641 6.34729 17.6913L6.34779 17.6914ZM27.0122 19.4492V19.4836H27.0517C27.0598 19.4836 27.0662 19.4824 27.0704 19.4799C27.0748 19.4773 27.077 19.473 27.077 19.4667C27.077 19.4605 27.0748 19.4561 27.0704 19.4534C27.0661 19.4506 27.0598 19.4492 27.0517 19.4492H27.0122ZM27.0528 19.4035C27.0785 19.4035 27.098 19.4092 27.1113 19.4206C27.1246 19.4321 27.1314 19.4472 27.1314 19.4666C27.1314 19.4816 27.1267 19.494 27.1171 19.5039C27.1075 19.5137 27.0935 19.5204 27.0753 19.5233L27.1337 19.5908H27.0706L27.0184 19.5253H27.0124V19.5908H26.9597V19.4033H27.0529L27.0528 19.4035ZM27.0405 19.6504C27.0615 19.6504 27.0814 19.6463 27.0999 19.6383C27.1182 19.6302 27.1346 19.6192 27.1482 19.6056C27.1618 19.5918 27.1726 19.5755 27.1807 19.557C27.1884 19.5384 27.1923 19.5186 27.1923 19.497C27.1923 19.476 27.1884 19.4561 27.1807 19.4375C27.1728 19.4188 27.162 19.4026 27.1482 19.389C27.1347 19.3753 27.1184 19.3644 27.0999 19.3565C27.0814 19.3486 27.0615 19.3445 27.0405 19.3445C27.0188 19.3445 26.9987 19.3486 26.98 19.3565C26.9614 19.3646 26.945 19.3753 26.9312 19.389C26.9176 19.4026 26.9065 19.4188 26.8987 19.4375C26.891 19.4561 26.887 19.476 26.887 19.497C26.887 19.5184 26.8908 19.5384 26.8987 19.557C26.9065 19.5755 26.9174 19.5918 26.9312 19.6056C26.945 19.6192 26.9614 19.6302 26.98 19.6383C26.9987 19.6463 27.0188 19.6504 27.0405 19.6504ZM27.0405 19.2858C27.0706 19.2858 27.0989 19.2913 27.1253 19.3026C27.1517 19.3136 27.1748 19.3289 27.1943 19.3479C27.214 19.3671 27.2295 19.3893 27.2408 19.4149C27.2522 19.4407 27.2578 19.4679 27.2578 19.4972C27.2578 19.5262 27.2522 19.5536 27.2408 19.5792C27.2295 19.6048 27.2142 19.6275 27.1943 19.6467C27.1748 19.6662 27.1517 19.6814 27.1253 19.6925C27.0989 19.7037 27.0706 19.7093 27.0405 19.7093C27.0097 19.7093 26.9809 19.7037 26.9543 19.6925C26.9275 19.6814 26.9045 19.6662 26.8848 19.6467C26.8652 19.6275 26.8498 19.6049 26.8387 19.5792C26.8275 19.5536 26.8218 19.526 26.8218 19.4972C26.8218 19.4679 26.8274 19.4408 26.8387 19.4149C26.8498 19.3893 26.8652 19.3669 26.8848 19.3479C26.9045 19.3289 26.9275 19.3136 26.9543 19.3026C26.9809 19.2913 27.0097 19.2858 27.0405 19.2858ZM18.312 18.0727C18.3696 18.0143 18.4382 17.9686 18.5177 17.9362C18.5971 17.9037 18.683 17.8873 18.7754 17.8873C18.8772 17.8873 18.9715 17.9035 19.0588 17.9362C19.1433 17.9675 19.2166 18.0114 19.2787 18.0671L19.4965 17.7047C19.4149 17.6394 19.3228 17.5859 19.2204 17.5443C19.0839 17.4888 18.9358 17.461 18.7754 17.461C18.6151 17.461 18.4668 17.4888 18.3303 17.5443C18.1938 17.5998 18.0763 17.6764 17.9774 17.7739C17.8785 17.8712 17.801 17.9865 17.7447 18.1193C17.6883 18.2521 17.6601 18.3964 17.6601 18.5522C17.6601 18.7083 17.6882 18.8525 17.7447 18.9855C17.801 19.1183 17.8785 19.2333 17.9774 19.3309C18.0762 19.4284 18.1938 19.5048 18.3303 19.5605C18.4668 19.616 18.6151 19.6438 18.7754 19.6438C18.9358 19.6438 19.0839 19.616 19.2204 19.5605C19.3228 19.5188 19.4149 19.4654 19.4965 19.3999L19.2787 19.0375C19.2166 19.0932 19.1433 19.137 19.0588 19.1685C18.9715 19.201 18.8771 19.2173 18.7754 19.2173C18.6831 19.2173 18.5971 19.2011 18.5177 19.1685C18.4382 19.136 18.3696 19.0905 18.312 19.0321C18.2543 18.9737 18.2088 18.9037 18.1756 18.8222C18.1425 18.7404 18.126 18.6507 18.126 18.5524C18.126 18.4543 18.1425 18.3644 18.1756 18.2829C18.2088 18.2011 18.2544 18.1313 18.3122 18.0728L18.312 18.0727ZM25.6171 18.8165C25.5868 18.8975 25.5441 18.9675 25.4892 19.0266C25.4343 19.0858 25.3687 19.1323 25.2922 19.1661C25.2158 19.2001 25.1305 19.2171 25.0369 19.2171C24.9386 19.2171 24.8509 19.1994 24.7738 19.1641C24.6965 19.1287 24.6312 19.0811 24.5777 19.0212C24.5244 18.9613 24.4833 18.8909 24.4543 18.8101C24.4254 18.7291 24.4111 18.6435 24.4111 18.5524C24.4111 18.4615 24.4255 18.3757 24.4543 18.2947C24.4833 18.2139 24.5244 18.1435 24.5777 18.0836C24.6312 18.0237 24.6965 17.9761 24.7738 17.9407C24.8509 17.9052 24.9388 17.8875 25.0369 17.8875C25.1305 17.8875 25.2158 17.9045 25.2922 17.9385C25.3688 17.9724 25.4345 18.019 25.4892 18.0782C25.5441 18.1375 25.5866 18.2073 25.6171 18.2883C25.6474 18.3691 25.6624 18.457 25.6624 18.5524C25.6624 18.6478 25.6472 18.7359 25.6171 18.8167V18.8165ZM25.6345 16.6719V17.7663C25.5621 17.6741 25.4727 17.5998 25.3658 17.5445C25.2589 17.4888 25.1312 17.461 24.9825 17.461C24.8366 17.461 24.7009 17.4879 24.5754 17.5421C24.4498 17.5963 24.34 17.6717 24.2461 17.7683C24.1522 17.865 24.0786 17.9801 24.0253 18.1137C23.9716 18.2472 23.945 18.3933 23.945 18.5522C23.945 18.7111 23.9716 18.8572 24.0253 18.9907C24.0786 19.1244 24.1522 19.2395 24.2461 19.3363C24.3399 19.4329 24.4496 19.5083 24.5754 19.5625C24.7009 19.6167 24.8366 19.6437 24.9825 19.6437C25.131 19.6437 25.2589 19.6162 25.3658 19.5613C25.4725 19.5066 25.5621 19.4329 25.6345 19.3407V19.5896H26.0869V16.6719H25.6345ZM23.5205 17.461C23.3932 17.461 23.2786 17.484 23.1761 17.5302C23.0736 17.5765 22.9877 17.6875 22.9185 17.7872V17.5152H22.5075V19.5896H22.9229V18.4484C22.9229 18.3603 22.935 18.2816 22.9598 18.2124C22.9843 18.143 23.0182 18.0846 23.0614 18.037C23.1047 17.9894 23.1569 17.9532 23.2175 17.9286C23.2782 17.904 23.3446 17.8917 23.4166 17.8917C23.4716 17.8917 23.5307 17.8983 23.5942 17.9114C23.6267 17.918 23.6568 17.9261 23.6851 17.9357L23.8189 17.5027C23.7825 17.4911 23.7458 17.4813 23.708 17.475C23.6523 17.4655 23.5898 17.461 23.5206 17.461H23.5205ZM17.2286 17.461C17.1017 17.461 16.9869 17.484 16.8844 17.5302C16.7819 17.5765 16.6961 17.6875 16.6267 17.7872V17.5152H16.2158V19.5896H16.6311V18.4484C16.6311 18.3603 16.6434 18.2816 16.668 18.2124C16.6925 18.143 16.7264 18.0846 16.7698 18.037C16.8132 17.9894 16.8651 17.9532 16.9258 17.9286C16.9863 17.904 17.0527 17.8917 17.125 17.8917C17.18 17.8917 17.2391 17.8983 17.3027 17.9114C17.335 17.918 17.3653 17.9261 17.3936 17.9357L17.5274 17.5027C17.4911 17.4911 17.4542 17.4813 17.4163 17.475C17.3608 17.4655 17.2983 17.461 17.229 17.461H17.2286ZM13.1426 19.176C13.0697 19.2035 12.9978 19.2171 12.9271 19.2171C12.8808 19.2171 12.8379 19.2099 12.7982 19.1954C12.7584 19.1811 12.7239 19.1584 12.6941 19.1272C12.6645 19.0963 12.6411 19.0562 12.6238 19.007C12.6063 18.9581 12.5977 18.8986 12.5977 18.8295V17.9264H13.3247V17.515H12.5977V16.887H12.143V17.515H11.7295V17.9264H12.143V18.838C12.143 19.1139 12.2082 19.3169 12.3388 19.4477C12.4696 19.5783 12.6526 19.6437 12.8879 19.6437C13.0193 19.6437 13.1372 19.6235 13.2419 19.5831C13.3111 19.5563 13.3752 19.5257 13.4353 19.492L13.2806 19.1131C13.2368 19.1365 13.1909 19.1575 13.1424 19.1759L13.1426 19.176ZM21.4353 18.8165C21.405 18.8975 21.3624 18.9675 21.3075 19.0266C21.2526 19.0858 21.187 19.1323 21.1104 19.1661C21.034 19.2001 20.9488 19.2171 20.8549 19.2171C20.7567 19.2171 20.669 19.1994 20.5918 19.1641C20.5145 19.1287 20.4492 19.0811 20.3958 19.0212C20.3423 18.9613 20.3012 18.8909 20.2725 18.8101C20.2435 18.7291 20.2292 18.6435 20.2292 18.5524C20.2292 18.4615 20.2437 18.3757 20.2725 18.2947C20.3014 18.2139 20.3425 18.1435 20.3958 18.0836C20.4492 18.0237 20.5145 17.9761 20.5918 17.9407C20.669 17.9052 20.7567 17.8875 20.8549 17.8875C20.9488 17.8875 21.0341 17.9045 21.1104 17.9385C21.187 17.9724 21.2526 18.019 21.3075 18.0782C21.3624 18.1375 21.405 18.2073 21.4353 18.2883C21.4656 18.3691 21.4807 18.457 21.4807 18.5524C21.4807 18.6478 21.4656 18.7359 21.4353 18.8167V18.8165ZM21.4524 17.7663C21.3802 17.6741 21.2908 17.5998 21.1839 17.5445C21.0772 17.4888 20.9493 17.461 20.8007 17.461C20.6549 17.461 20.5191 17.4879 20.3935 17.5421C20.2679 17.5963 20.1582 17.6717 20.0644 17.7683C19.9705 17.865 19.8968 17.9801 19.8434 18.1137C19.7899 18.2472 19.7633 18.3933 19.7633 18.5522C19.7633 18.7111 19.7899 18.8572 19.8434 18.9907C19.8968 19.1244 19.9705 19.2395 20.0644 19.3363C20.1582 19.4329 20.2679 19.5083 20.3935 19.5625C20.5191 19.6167 20.6549 19.6437 20.8007 19.6437C20.9493 19.6437 21.0772 19.6162 21.1839 19.5613C21.2908 19.5066 21.3802 19.4329 21.4524 19.3407V19.5896H21.905V17.5152H21.4524V17.7663ZM14.1736 18.3748C14.1852 18.2999 14.2054 18.2307 14.2343 18.1681C14.2633 18.1053 14.3005 18.0513 14.3457 18.0057C14.3914 17.9602 14.4454 17.9252 14.5082 17.9006C14.5711 17.8761 14.6428 17.8638 14.7236 17.8638C14.8679 17.8638 14.9857 17.9086 15.0766 17.9981C15.1677 18.0877 15.2252 18.2132 15.2498 18.3748H14.1736ZM15.4394 17.7631C15.3533 17.6672 15.2502 17.5928 15.1298 17.5401C15.0091 17.4874 14.8768 17.461 14.7326 17.461C14.5794 17.461 14.4397 17.4872 14.3133 17.5401C14.1868 17.5928 14.0783 17.667 13.9874 17.7631C13.8963 17.8591 13.8258 17.9742 13.7751 18.1085C13.7246 18.2429 13.6994 18.3908 13.6994 18.5524C13.6994 18.717 13.7255 18.8663 13.7773 19.0006C13.8293 19.135 13.902 19.2496 13.996 19.3449C14.0899 19.4401 14.2018 19.5139 14.3318 19.5657C14.4616 19.6177 14.6046 19.6438 14.7605 19.6438C14.9179 19.6438 15.0677 19.6221 15.2099 19.5788C15.3522 19.5356 15.4867 19.4597 15.6139 19.3514L15.3889 19.0288C15.3022 19.0979 15.2064 19.1518 15.1017 19.19C14.997 19.2284 14.8926 19.2474 14.7888 19.2474C14.7151 19.2474 14.6444 19.2375 14.5765 19.2171C14.5087 19.1969 14.4472 19.1656 14.3924 19.123C14.3375 19.0804 14.2905 19.0259 14.2515 18.9594C14.2126 18.8931 14.1858 18.813 14.1714 18.719H15.7046C15.7075 18.6931 15.7097 18.6657 15.7112 18.6367C15.7125 18.6079 15.7134 18.579 15.7134 18.55C15.7134 18.3885 15.6891 18.2408 15.6408 18.1072C15.5927 17.9737 15.5255 17.8589 15.4395 17.7628L15.4394 17.7631ZM11.2018 18.5492C11.0745 18.4504 10.8978 18.3844 10.6712 18.3513L10.4568 18.3186C10.409 18.3114 10.3642 18.3031 10.3224 18.2937C10.2807 18.2843 10.2445 18.2716 10.2142 18.2558C10.1841 18.24 10.1597 18.2196 10.1417 18.1952C10.1237 18.1706 10.1147 18.1403 10.1147 18.1042C10.1147 18.0304 10.1491 17.9708 10.2176 17.9254C10.2861 17.8799 10.3825 17.8574 10.5066 17.8574C10.5716 17.8574 10.6355 17.8629 10.6983 17.8747C10.7611 17.8863 10.8205 17.9006 10.8769 17.9178C10.9331 17.9352 10.9845 17.9543 11.0308 17.9754C11.0769 17.9963 11.1159 18.0163 11.1477 18.0348L11.3425 17.682C11.2343 17.6126 11.108 17.5589 10.9636 17.5206C10.8193 17.4824 10.6655 17.4632 10.5022 17.4632C10.3694 17.4632 10.2504 17.4788 10.1449 17.5098C10.0397 17.5408 9.94978 17.5849 9.87538 17.6418C9.80098 17.699 9.74391 17.7685 9.70419 17.8508C9.6643 17.9333 9.64477 18.0255 9.64477 18.1281C9.64477 18.2955 9.70419 18.4309 9.8232 18.5342C9.94237 18.6374 10.1176 18.7049 10.3484 18.7365L10.565 18.7648C10.6892 18.782 10.7801 18.8099 10.838 18.8481C10.8958 18.8864 10.9245 18.935 10.9245 18.9944C10.9245 19.0722 10.8848 19.134 10.8054 19.1794C10.7259 19.2249 10.6084 19.2476 10.4524 19.2476C10.3672 19.2476 10.2911 19.2419 10.224 19.2302C10.157 19.2186 10.0954 19.2033 10.04 19.1838C9.98428 19.1643 9.93446 19.142 9.89036 19.1168C9.84642 19.0915 9.80552 19.0644 9.76815 19.0357L9.55808 19.3755C9.63316 19.4317 9.71193 19.4773 9.79408 19.512C9.87655 19.5465 9.95718 19.5736 10.0366 19.593C10.1161 19.6127 10.1912 19.6255 10.2619 19.6319C10.3325 19.6384 10.3947 19.6418 10.448 19.6418C10.5966 19.6418 10.73 19.6253 10.8476 19.592C10.9654 19.5586 11.0643 19.5122 11.1444 19.4521C11.2247 19.3922 11.2858 19.3208 11.3285 19.2378C11.3713 19.1548 11.3923 19.0636 11.3923 18.964C11.3923 18.7864 11.329 18.6482 11.2019 18.5492H11.2018ZM8.65132 18.8167C8.62102 18.8976 8.57843 18.9677 8.52356 19.0267C8.46869 19.086 8.40304 19.1324 8.32662 19.1663C8.25003 19.2003 8.16486 19.2173 8.0711 19.2173C7.97297 19.2173 7.8851 19.1996 7.80801 19.1643C7.73075 19.1289 7.66544 19.0813 7.61208 19.0214C7.55855 18.9614 7.51748 18.8911 7.4887 18.8103C7.45975 18.7293 7.44544 18.6436 7.44544 18.5526C7.44544 18.4617 7.45991 18.3758 7.4887 18.2949C7.51765 18.2141 7.55872 18.1437 7.61208 18.0838C7.66544 18.0239 7.73092 17.9762 7.80801 17.9409C7.88527 17.9054 7.97297 17.8877 8.0711 17.8877C8.16486 17.8877 8.25003 17.9047 8.32662 17.9387C8.40304 17.9725 8.46869 18.0191 8.52356 18.0784C8.57843 18.1376 8.62102 18.2075 8.65132 18.2885C8.68162 18.3693 8.69677 18.4571 8.69677 18.5526C8.69677 18.648 8.68162 18.736 8.65132 18.8168V18.8167ZM8.66866 17.7665C8.59644 17.6742 8.5069 17.6 8.40001 17.5446C8.29312 17.4889 8.16536 17.4612 8.01673 17.4612C7.87096 17.4612 7.73529 17.4881 7.60956 17.5423C7.48398 17.5965 7.37424 17.6719 7.28048 17.7685C7.18655 17.8651 7.113 17.9803 7.05947 18.1139C7.00611 18.2474 6.97935 18.3935 6.97935 18.5524C6.97935 18.7113 7.00611 18.8574 7.05947 18.9909C7.113 19.1245 7.18655 19.2397 7.28048 19.3365C7.37424 19.4331 7.48398 19.5085 7.60956 19.5627C7.73529 19.6169 7.87096 19.6438 8.01673 19.6438C8.16536 19.6438 8.29329 19.6164 8.40001 19.5615C8.5069 19.5068 8.59644 19.4331 8.66866 19.3408V19.5898H9.12128V17.5154H8.66866V17.7665Z" fill="#141515"/>
<path fill-rule="evenodd" clip-rule="evenodd" d="M11.6996 7.81869C11.6996 5.3332 12.8607 3.12057 14.6685 1.6883C13.3353 0.632228 11.6514 0 9.81869 0C5.50065 0 2 3.50065 2 7.81852C2 12.1366 5.50048 15.637 9.81869 15.637C11.6514 15.637 13.3353 15.005 14.6685 13.9489C12.8607 12.5168 11.6996 10.304 11.6996 7.81852V7.81869Z" fill="#DE2C1D"/>
<path fill-rule="evenodd" clip-rule="evenodd" d="M11.6992 7.81789C11.6992 10.3035 12.8603 12.5162 14.6681 13.9483C16.4759 12.5162 17.6369 10.3034 17.6369 7.81789C17.6369 5.33241 16.4758 3.11978 14.6681 1.6875C12.8603 3.11961 11.6992 5.33241 11.6992 7.81789Z" fill="#ED6100"/>
<path fill-rule="evenodd" clip-rule="evenodd" d="M19.5215 0C17.6888 0 16.0048 0.632228 14.6719 1.6883C16.4797 3.12041 17.6406 5.3332 17.6406 7.81869C17.6406 10.3043 16.4795 12.517 14.6719 13.9491C16.0048 15.0051 17.6888 15.6372 19.5215 15.6372C23.8395 15.6372 27.34 12.1367 27.34 7.81869C27.34 3.50065 23.8395 0.000168325 19.5215 0.000168325V0ZM27.8896 12.3315V11.9995L27.7819 12.286H27.663L27.5553 12.0002V12.3315H27.4432V11.8529H27.6038L27.7228 12.1593L27.8406 11.8529H28.0015V12.3315H27.8892H27.8896ZM27.0858 12.3315V11.9561H26.9338V11.8529H27.3496V11.9561H27.1978V12.3315H27.0857H27.0858Z" fill="#F79F06"/>
</svg>
