<svg width="30" height="20" viewBox="0 0 30 20" fill="none" xmlns="http://www.w3.org/2000/svg">
<g clip-path="url(#clip0_72_1978)">
<path fill-rule="evenodd" clip-rule="evenodd" d="M10.5713 14.0655L12.0899 5.15461H14.5186L12.9991 14.0655H10.5713ZM21.8082 5.37427C21.3269 5.19341 20.5729 5 19.6313 5C17.2315 4.99971 15.5407 6.20853 15.5265 7.94064C15.5129 9.22057 16.7334 9.93519 17.6547 10.3615C18.6001 10.7979 18.918 11.0767 18.9134 11.4668C18.9074 12.0638 18.1584 12.3369 17.4603 12.3369C16.4882 12.3369 15.9717 12.2019 15.1741 11.8693L14.861 11.7273L14.5201 13.7222C15.0875 13.9711 16.1364 14.1866 17.2256 14.1978C19.7787 14.1977 21.4361 13.0031 21.455 11.1535C21.4641 10.1397 20.8171 9.36839 19.4159 8.73241C18.5669 8.31992 18.0468 8.04523 18.0525 7.62773C18.0525 7.25729 18.4925 6.86134 19.4433 6.86134C20.2378 6.8488 20.8128 7.02214 21.2611 7.20271L21.4789 7.30539L21.808 5.37442L21.8082 5.37427ZM28.0364 5.16302H26.1596C25.5782 5.16302 25.143 5.32205 24.8876 5.90227L21.2806 14.0681H23.831C23.831 14.0681 24.2481 12.9704 24.3425 12.7293C24.6213 12.7293 27.0989 12.7332 27.4531 12.7332C27.5258 13.045 27.7486 14.0683 27.7486 14.0683L30.0025 14.0681L28.0366 5.16302H28.0364ZM25.0413 10.9066C25.2423 10.3933 26.009 8.41596 26.009 8.41596C25.9948 8.43957 26.2083 7.90007 26.331 7.56548L26.4954 8.3335C26.4954 8.3335 26.9602 10.4608 27.0574 10.9068L25.0412 10.9066H25.0413ZM8.53422 5.1611L6.1564 11.2377L5.90295 10.0029C5.46037 8.57927 4.081 7.03719 2.53906 6.26504L4.71345 14.0578L7.2832 14.0547L11.1069 5.1611H8.53422Z" fill="#191E70"/>
<path fill-rule="evenodd" clip-rule="evenodd" d="M3.9475 5.15625H0.0309805L0 5.34169C3.047 6.07902 5.06309 7.86173 5.90001 10.0034L5.04834 5.90863C4.9014 5.34435 4.47491 5.17602 3.9475 5.15625Z" fill="#F7B600"/>
</g>
<defs>
<clipPath id="clip0_72_1978">
<rect width="30" height="20" fill="white"/>
</clipPath>
</defs>
</svg>
